<svg width="32" height="32" viewBox="0 0 32 32" fill="none" xmlns="http://www.w3.org/2000/svg">
<g clip-path="url(#clip0_873_20600)">
<path d="M28 0H4C1.79086 0 0 1.79086 0 4V28C0 30.2091 1.79086 32 4 32H28C30.2091 32 32 30.2091 32 28V4C32 1.79086 30.2091 0 28 0Z" fill="white"/>
<path d="M4.67152 22V9.4H13.5275V11.992H7.65952V14.332H12.5825V16.726H7.65952V19.381H13.5995V22H4.67152ZM16.0973 22V9.4H19.0853V14.773L23.3603 9.4H27.0863L22.4243 15.187L27.6893 22H23.8463L20.4533 17.446L19.0853 19.003V22H16.0973Z" fill="black"/>
</g>
<defs>
<clipPath id="clip0_873_20600">
<rect width="32" height="32" fill="white"/>
</clipPath>
</defs>
</svg>
